<svg width="1312" height="904" viewBox="0 0 1312 904" fill="none" xmlns="http://www.w3.org/2000/svg">
<path d="M15.0627 161.664C14.2562 138.123 21.2399 114.974 34.9306 95.8074C48.6213 76.6404 68.254 62.5266 90.7837 55.6548C113.313 48.783 137.481 49.5373 159.538 57.8008C181.596 66.0642 200.31 81.375 212.778 101.358" stroke="black" stroke-width="30"/>
<path d="M211.528 98.833C220.933 114.988 234.406 128.398 250.606 137.726C266.806 147.054 285.166 151.975 303.86 152C322.553 152.024 340.927 147.151 357.151 137.865C373.375 128.58 386.883 115.206 396.33 99.0751" stroke="black" stroke-width="30"/>
<path d="M396.05 100.052C405.752 84.9913 419.081 72.6076 434.814 64.0372C450.547 55.4667 468.18 50.984 486.096 51C504.012 51.0161 521.637 55.5305 537.354 64.1291C553.072 72.7277 566.379 85.1353 576.054 100.214" stroke="black" stroke-width="30"/>
<path d="M573.735 96.4836C583.825 111.208 597.438 123.174 613.334 131.292C629.231 139.411 646.906 143.423 664.749 142.965C682.593 142.506 700.038 137.591 715.497 128.667C730.955 119.742 743.936 107.093 753.256 91.8697" stroke="black" stroke-width="30"/>
<path d="M748.05 100.052C757.752 84.9913 771.081 72.6076 786.814 64.0372C802.547 55.4667 820.18 50.984 838.096 51C856.012 51.0161 873.637 55.5305 889.354 64.1291C905.072 72.7277 918.379 85.1353 928.054 100.214" stroke="black" stroke-width="30"/>
<path d="M1100.79 98.9204C1113.48 79.7501 1132.02 65.1793 1153.64 57.3664C1175.27 49.5536 1198.83 48.9145 1220.85 55.5437C1242.87 62.173 1262.16 75.7179 1275.88 94.1718C1289.59 112.626 1297 135.007 1297 158" stroke="black" stroke-width="30"/>
<path d="M926.186 97.1369C935.99 111.219 949.036 122.736 964.225 130.718C979.414 138.7 996.299 142.912 1013.46 142.999C1030.62 143.086 1047.54 139.045 1062.81 131.218C1078.08 123.391 1091.24 112.006 1101.19 98.0248" stroke="black" stroke-width="30"/>
<path d="M15.0627 339.664C14.2562 316.123 21.2399 292.974 34.9306 273.807C48.6213 254.64 68.254 240.527 90.7837 233.655C113.313 226.783 137.481 227.537 159.538 235.801C181.596 244.064 200.31 259.375 212.778 279.358" stroke="black" stroke-width="30"/>
<path d="M211.528 276.833C220.933 292.988 234.406 306.398 250.606 315.726C266.806 325.054 285.166 329.975 303.86 330C322.553 330.024 340.927 325.151 357.151 315.865C373.375 306.58 386.883 293.206 396.33 277.075" stroke="black" stroke-width="30"/>
<path d="M396.05 278.052C405.752 262.991 419.081 250.608 434.814 242.037C450.547 233.467 468.18 228.984 486.096 229C504.012 229.016 521.637 233.53 537.354 242.129C553.072 250.728 566.379 263.135 576.054 278.214" stroke="black" stroke-width="30"/>
<path d="M573.735 274.484C583.825 289.208 597.438 301.174 613.334 309.292C629.231 317.411 646.906 321.423 664.749 320.965C682.593 320.506 700.038 315.591 715.497 306.667C730.955 297.742 743.936 285.093 753.256 269.87" stroke="black" stroke-width="30"/>
<path d="M748.05 278.052C757.752 262.991 771.081 250.608 786.814 242.037C802.547 233.467 820.18 228.984 838.096 229C856.012 229.016 873.637 233.53 889.354 242.129C905.072 250.728 918.379 263.135 928.054 278.214" stroke="black" stroke-width="30"/>
<path d="M1100.79 276.92C1113.48 257.75 1132.02 243.179 1153.64 235.366C1175.27 227.554 1198.83 226.915 1220.85 233.544C1242.87 240.173 1262.16 253.718 1275.88 272.172C1289.59 290.626 1297 313.007 1297 336" stroke="black" stroke-width="30"/>
<path d="M926.186 275.137C935.99 289.219 949.036 300.736 964.225 308.718C979.414 316.7 996.299 320.912 1013.46 320.999C1030.62 321.086 1047.54 317.045 1062.81 309.218C1078.08 301.391 1091.24 290.006 1101.19 276.025" stroke="black" stroke-width="30"/>
<path d="M15.0627 517.664C14.2562 494.123 21.2399 470.974 34.9306 451.807C48.6213 432.64 68.254 418.527 90.7837 411.655C113.313 404.783 137.481 405.537 159.538 413.801C181.596 422.064 200.31 437.375 212.778 457.358" stroke="black" stroke-width="30"/>
<path d="M211.528 454.833C220.933 470.988 234.406 484.398 250.606 493.726C266.806 503.054 285.166 507.975 303.86 508C322.553 508.024 340.927 503.151 357.151 493.865C373.375 484.58 386.883 471.206 396.33 455.075" stroke="black" stroke-width="30"/>
<path d="M396.05 456.052C405.752 440.991 419.081 428.608 434.814 420.037C450.547 411.467 468.18 406.984 486.096 407C504.012 407.016 521.637 411.53 537.354 420.129C553.072 428.728 566.379 441.135 576.054 456.214" stroke="black" stroke-width="30"/>
<path d="M573.735 452.484C583.825 467.208 597.438 479.174 613.334 487.292C629.231 495.411 646.906 499.423 664.749 498.965C682.593 498.506 700.038 493.591 715.497 484.667C730.955 475.742 743.936 463.093 753.256 447.87" stroke="black" stroke-width="30"/>
<path d="M748.05 456.052C757.752 440.991 771.081 428.608 786.814 420.037C802.547 411.467 820.18 406.984 838.096 407C856.012 407.016 873.637 411.53 889.354 420.129C905.072 428.728 918.379 441.135 928.054 456.214" stroke="black" stroke-width="30"/>
<path d="M1100.79 454.92C1113.48 435.75 1132.02 421.179 1153.64 413.366C1175.27 405.554 1198.83 404.915 1220.85 411.544C1242.87 418.173 1262.16 431.718 1275.88 450.172C1289.59 468.626 1297 491.007 1297 514" stroke="black" stroke-width="30"/>
<path d="M926.186 453.137C935.99 467.219 949.036 478.736 964.225 486.718C979.414 494.7 996.299 498.912 1013.46 498.999C1030.62 499.086 1047.54 495.045 1062.81 487.218C1078.08 479.391 1091.24 468.006 1101.19 454.025" stroke="black" stroke-width="30"/>
<path d="M15.0627 695.664C14.2562 672.123 21.2399 648.974 34.9306 629.807C48.6213 610.64 68.254 596.527 90.7837 589.655C113.313 582.783 137.481 583.537 159.538 591.801C181.596 600.064 200.31 615.375 212.778 635.358" stroke="black" stroke-width="30"/>
<path d="M211.528 632.833C220.933 648.988 234.406 662.398 250.606 671.726C266.806 681.054 285.166 685.975 303.86 686C322.553 686.024 340.927 681.151 357.151 671.865C373.375 662.58 386.883 649.206 396.33 633.075" stroke="black" stroke-width="30"/>
<path d="M396.05 634.052C405.752 618.991 419.081 606.608 434.814 598.037C450.547 589.467 468.18 584.984 486.096 585C504.012 585.016 521.637 589.53 537.354 598.129C553.072 606.728 566.379 619.135 576.054 634.214" stroke="black" stroke-width="30"/>
<path d="M573.735 630.484C583.825 645.208 597.438 657.174 613.334 665.292C629.231 673.411 646.906 677.423 664.749 676.965C682.593 676.506 700.038 671.591 715.497 662.667C730.955 653.742 743.936 641.093 753.256 625.87" stroke="black" stroke-width="30"/>
<path d="M748.05 634.052C757.752 618.991 771.081 606.608 786.814 598.037C802.547 589.467 820.18 584.984 838.096 585C856.012 585.016 873.637 589.53 889.354 598.129C905.072 606.728 918.379 619.135 928.054 634.214" stroke="black" stroke-width="30"/>
<path d="M1100.79 632.92C1113.48 613.75 1132.02 599.179 1153.64 591.366C1175.27 583.554 1198.83 582.915 1220.85 589.544C1242.87 596.173 1262.16 609.718 1275.88 628.172C1289.59 646.626 1297 669.007 1297 692" stroke="black" stroke-width="30"/>
<path d="M926.186 631.137C935.99 645.219 949.036 656.736 964.225 664.718C979.414 672.7 996.299 676.912 1013.46 676.999C1030.62 677.086 1047.54 673.045 1062.81 665.218C1078.08 657.391 1091.24 646.006 1101.19 632.025" stroke="black" stroke-width="30"/>
<path d="M15.0627 873.664C14.2562 850.123 21.2399 826.974 34.9306 807.807C48.6213 788.64 68.254 774.527 90.7837 767.655C113.313 760.783 137.481 761.537 159.538 769.801C181.596 778.064 200.31 793.375 212.778 813.358" stroke="black" stroke-width="30"/>
<path d="M211.528 810.833C220.933 826.988 234.406 840.398 250.606 849.726C266.806 859.054 285.166 863.975 303.86 864C322.553 864.024 340.927 859.151 357.151 849.865C373.375 840.58 386.883 827.206 396.33 811.075" stroke="black" stroke-width="30"/>
<path d="M396.05 812.052C405.752 796.991 419.081 784.608 434.814 776.037C450.547 767.467 468.18 762.984 486.096 763C504.012 763.016 521.637 767.53 537.354 776.129C553.072 784.728 566.379 797.135 576.054 812.214" stroke="black" stroke-width="30"/>
<path d="M573.735 808.484C583.825 823.208 597.438 835.174 613.334 843.292C629.231 851.411 646.906 855.423 664.749 854.965C682.593 854.506 700.038 849.591 715.497 840.667C730.955 831.742 743.936 819.093 753.256 803.87" stroke="black" stroke-width="30"/>
<path d="M748.05 812.052C757.752 796.991 771.081 784.608 786.814 776.037C802.547 767.467 820.18 762.984 838.096 763C856.012 763.016 873.637 767.53 889.354 776.129C905.072 784.728 918.379 797.135 928.054 812.214" stroke="black" stroke-width="30"/>
<path d="M1100.79 810.92C1113.48 791.75 1132.02 777.179 1153.64 769.366C1175.27 761.554 1198.83 760.915 1220.85 767.544C1242.87 774.173 1262.16 787.718 1275.88 806.172C1289.59 824.626 1297 847.007 1297 870" stroke="black" stroke-width="30"/>
<path d="M926.186 809.137C935.99 823.219 949.036 834.736 964.225 842.718C979.414 850.7 996.299 854.912 1013.46 854.999C1030.62 855.086 1047.54 851.045 1062.81 843.218C1078.08 835.391 1091.24 824.006 1101.19 810.025" stroke="black" stroke-width="30"/>
</svg>
