<svg width="814" height="463" viewBox="0 0 814 463" fill="none" xmlns="http://www.w3.org/2000/svg">
<line x1="7.92893" y1="119.929" x2="119.929" y2="7.92893" stroke="black" stroke-width="20"/>
<line x1="106.071" y1="7.92893" x2="218.071" y2="119.929" stroke="black" stroke-width="20"/>
<line x1="203.929" y1="119.929" x2="315.929" y2="7.92893" stroke="black" stroke-width="20"/>
<line x1="302.071" y1="7.92893" x2="414.071" y2="119.929" stroke="black" stroke-width="20"/>
<line x1="399.929" y1="119.929" x2="511.929" y2="7.92893" stroke="black" stroke-width="20"/>
<line x1="498.071" y1="7.92893" x2="610.071" y2="119.929" stroke="black" stroke-width="20"/>
<line x1="595.929" y1="119.929" x2="707.929" y2="7.92893" stroke="black" stroke-width="20"/>
<line x1="694.071" y1="7.92893" x2="806.071" y2="119.929" stroke="black" stroke-width="20"/>
<line x1="7.92893" y1="231.929" x2="119.929" y2="119.929" stroke="black" stroke-width="20"/>
<line x1="106.071" y1="119.929" x2="218.071" y2="231.929" stroke="black" stroke-width="20"/>
<line x1="203.929" y1="231.929" x2="315.929" y2="119.929" stroke="black" stroke-width="20"/>
<line x1="302.071" y1="119.929" x2="414.071" y2="231.929" stroke="black" stroke-width="20"/>
<line x1="399.929" y1="231.929" x2="511.929" y2="119.929" stroke="black" stroke-width="20"/>
<line x1="498.071" y1="119.929" x2="610.071" y2="231.929" stroke="black" stroke-width="20"/>
<line x1="595.929" y1="231.929" x2="707.929" y2="119.929" stroke="black" stroke-width="20"/>
<line x1="694.071" y1="119.929" x2="806.071" y2="231.929" stroke="black" stroke-width="20"/>
<line x1="7.92893" y1="343.929" x2="119.929" y2="231.929" stroke="black" stroke-width="20"/>
<line x1="106.071" y1="231.929" x2="218.071" y2="343.929" stroke="black" stroke-width="20"/>
<line x1="203.929" y1="343.929" x2="315.929" y2="231.929" stroke="black" stroke-width="20"/>
<line x1="302.071" y1="231.929" x2="414.071" y2="343.929" stroke="black" stroke-width="20"/>
<line x1="399.929" y1="343.929" x2="511.929" y2="231.929" stroke="black" stroke-width="20"/>
<line x1="498.071" y1="231.929" x2="610.071" y2="343.929" stroke="black" stroke-width="20"/>
<line x1="595.929" y1="343.929" x2="707.929" y2="231.929" stroke="black" stroke-width="20"/>
<line x1="694.071" y1="231.929" x2="806.071" y2="343.929" stroke="black" stroke-width="20"/>
<line x1="7.92893" y1="455.929" x2="119.929" y2="343.929" stroke="black" stroke-width="20"/>
<line x1="106.071" y1="343.929" x2="218.071" y2="455.929" stroke="black" stroke-width="20"/>
<line x1="203.929" y1="455.929" x2="315.929" y2="343.929" stroke="black" stroke-width="20"/>
<line x1="302.071" y1="343.929" x2="414.071" y2="455.929" stroke="black" stroke-width="20"/>
<line x1="399.929" y1="455.929" x2="511.929" y2="343.929" stroke="black" stroke-width="20"/>
<line x1="498.071" y1="343.929" x2="610.071" y2="455.929" stroke="black" stroke-width="20"/>
<line x1="595.929" y1="455.929" x2="707.929" y2="343.929" stroke="black" stroke-width="20"/>
<line x1="694.071" y1="343.929" x2="806.071" y2="455.929" stroke="black" stroke-width="20"/>
</svg>
